<?xml version="1.0" standalone="no"?>
<!DOCTYPE svg PUBLIC "-//W3C//DTD SVG 1.1//EN" "http://www.w3.org/Graphics/SVG/1.1/DTD/svg11.dtd" >
<svg xmlns="http://www.w3.org/2000/svg" xmlns:xlink="http://www.w3.org/1999/xlink" version="1.1">
<metadata></metadata>
<defs>
<font id="couturebold" horiz-adv-x="1517" >
<font-face units-per-em="2048" ascent="1462" descent="-586" />
<missing-glyph horiz-adv-x="620" />
<glyph horiz-adv-x="0" />
<glyph horiz-adv-x="682" />
<glyph unicode=" "  horiz-adv-x="620" />
<glyph unicode="&#x09;" horiz-adv-x="620" />
<glyph unicode="&#xa0;" horiz-adv-x="620" />
<glyph unicode="#" horiz-adv-x="2074" d="M113 -2v1468h254h114l654 -913v913h272v-1468h-272l-768 1071v-1071h-254zM1483 1217q0 51 19.5 96t52 77.5t77.5 52t97 19.5q49 0 94 -19.5t77.5 -52t52 -77.5t19.5 -96t-19.5 -96.5t-52 -78t-77.5 -51t-94 -18.5q-51 0 -96.5 18.5t-78 51t-52 77.5t-19.5 97zM1583 1217 q0 -29 11.5 -55.5t32 -47t46 -33t56.5 -12.5q59 0 100 44t41 104q0 59 -41 102t-100 43t-102.5 -43t-43.5 -102z" />
<glyph unicode="$" horiz-adv-x="2820" d="M123 1188q61 106 147 195.5t191.5 154t226.5 99t254 34.5q125 0 239.5 -31.5t215.5 -89.5q102 57 217 89t239 32q131 0 254 -34.5t229.5 -99t193.5 -154t147 -195.5q-47 -27 -79 -44.5t-59.5 -31.5t-57.5 -28.5t-75 -34.5q-41 70 -98 128t-128 100t-153.5 65.5 t-173.5 23.5q-49 0 -98 -8t-98 -23q106 -125 165.5 -277.5t59.5 -326.5t-59.5 -327.5t-165.5 -276.5q49 -14 98 -22.5t98 -8.5q174 0 318.5 84t224.5 226q47 -25 78 -41.5t58.5 -29.5t58 -29.5t78.5 -41.5q-61 -106 -146.5 -193t-191 -149.5t-226 -96.5t-252.5 -34 q-125 0 -239.5 32t-216.5 89q-100 -57 -215 -89t-240 -32q-131 0 -252 34t-226.5 96.5t-190.5 149.5t-146 193q45 25 75.5 41.5t58.5 29.5t58.5 29.5t77.5 41.5q86 -141 228.5 -225.5t316.5 -84.5q51 0 99.5 8.5t95.5 22.5q-102 123 -160.5 276.5t-58.5 327.5t58 326.5 t161 277.5q-47 14 -95.5 22.5t-99.5 8.5q-88 0 -170 -23.5t-152.5 -65.5t-128 -100.5t-98.5 -127.5q-47 20 -76.5 34.5t-57.5 28.5t-58.5 31.5t-77.5 44.5zM1225 731q0 -129 45 -241.5t127 -198.5q82 86 131 198.5t49 241.5t-49 240.5t-131 197.5q-82 -86 -127 -197.5 t-45 -240.5z" />
<glyph unicode="0" horiz-adv-x="1120" d="M66 709q0 383 123.5 564t379.5 181t380 -181t124 -564t-124 -565.5t-380 -182.5t-379.5 182.5t-123.5 565.5zM360 709q0 -141 9.5 -239.5t34 -160t64.5 -90.5t101 -29t101.5 29t65 90.5t33.5 159.5t9 240q0 141 -9 239.5t-33.5 159.5t-64.5 89t-102 28q-61 0 -101 -28 t-64.5 -89t-34 -159.5t-9.5 -239.5z" />
<glyph unicode="1" horiz-adv-x="665" d="M59 1341l508 107v-1448h-286l2 1157l-222 -2z" />
<glyph unicode="2" horiz-adv-x="1103" d="M57 0v283q18 29 55.5 65.5t83.5 76.5t97 79t98 74q98 72 168 124t114 99t64.5 95t20.5 110q0 37 -12.5 73.5t-37 66.5t-62.5 48t-89 18q-76 0 -118 -27.5t-61.5 -68.5t-24.5 -89t-5 -87h-278q0 119 26.5 203t68.5 141t94 91t105.5 51.5t100.5 22.5t80 5q104 0 195 -30.5 t159 -89t106.5 -143.5t38.5 -196q0 -94 -27.5 -165.5t-70.5 -128t-97 -99.5t-108 -80q-72 -51 -127 -90t-95 -69.5t-65.5 -57t-37.5 -51.5h631v-254h-990z" />
<glyph unicode="3" horiz-adv-x="1122" d="M55 446h281l-2 -2q0 -29 6 -72.5t27.5 -83.5t64.5 -69t115 -29q86 0 150.5 59.5t64.5 180.5q0 74 -32 116t-81 62.5t-106.5 24.5t-106.5 4v205h45q33 0 75 4t80 23.5t63.5 58.5t25.5 110q0 20 -6 52t-25.5 62t-55.5 51.5t-95 21.5q-74 0 -114 -30t-58.5 -70t-21.5 -79.5 t-3 -58.5h-266q0 102 28.5 188.5t89 147.5t150.5 96t213 35q74 0 153 -20.5t145.5 -67.5t109.5 -125t43 -192q0 -55 -15.5 -100.5t-41 -80t-56.5 -58.5t-61 -38v-4q18 -6 55 -24.5t74 -57.5t63.5 -101.5t26.5 -154.5q0 -102 -36 -188t-101.5 -148.5t-156.5 -97.5t-202 -35 q-35 0 -85 4t-106.5 20.5t-112.5 48.5t-101 85t-73 133t-28 194z" />
<glyph unicode="4" horiz-adv-x="1140" d="M55 322v247l39 666h242l-35 -707l328 -2v928h286v-909h162v-223h-162v-322h-286v322h-574z" />
<glyph unicode="5" horiz-adv-x="1116" d="M55 389h287q10 -90 58.5 -144.5t144.5 -54.5q104 0 160.5 78t56.5 195q0 49 -12.5 95t-38 83t-65.5 59.5t-97 22.5q-14 0 -39 -2t-51.5 -12.5t-54 -31t-48.5 -59.5l-256 13v799h899v-242h-643v-316q41 29 97.5 54.5t162.5 25.5q74 0 152 -26.5t142.5 -83t105.5 -145.5 t41 -214q0 -74 -22.5 -165t-81 -170.5t-162 -133t-263.5 -53.5q-86 0 -167.5 25.5t-148.5 79t-109 133.5t-48 190z" />
<glyph unicode="6" horiz-adv-x="1116" d="M63 692q0 70 5.5 153t24 168t53 163.5t95 141t148.5 99.5t215 37q23 0 62 -5t82 -15.5t84.5 -29t68.5 -44.5q31 -29 51.5 -54.5t36 -55t26.5 -68.5t21 -97h-284q-6 61 -47 100.5t-121 39.5q-70 0 -115 -36t-71.5 -94.5t-38 -130t-15.5 -141.5l4 -4q14 20 36 42t54.5 39.5 t76.5 28.5t106 11q113 0 196.5 -40t139 -103.5t82 -143.5t26.5 -161q0 -119 -35 -217.5t-97.5 -168t-150.5 -107.5t-192 -38q-166 0 -268.5 63.5t-160 166t-78 234.5t-20.5 267zM350 461q0 -119 61.5 -195t166.5 -76q39 0 75.5 15.5t64 49.5t44 86t16.5 126q0 70 -20.5 116 t-51 74.5t-67.5 41t-70 12.5q-41 0 -79.5 -13.5t-69.5 -43t-50.5 -78t-19.5 -115.5z" />
<glyph unicode="7" horiz-adv-x="1122" d="M51 1176l6 254h1024v-222q-31 -68 -87 -185.5t-128.5 -274t-153.5 -347t-161 -401.5h-295q82 201 164 387t152.5 342t124 271.5t77.5 175.5h-723z" />
<glyph unicode="8" horiz-adv-x="1134" d="M66 403q0 27 3 74t24.5 99.5t65.5 104.5t128 91q-86 43 -131 112.5t-45 172.5q0 92 34.5 165.5t96 125t143.5 79t178 27.5q113 0 199 -30.5t144.5 -83t88 -121t29.5 -144.5q0 -94 -40 -170t-128 -123q51 -27 92 -58.5t68.5 -72.5t42 -95t14.5 -124t-24.5 -151.5 t-83 -152.5t-155.5 -119t-241 -48q-141 0 -237 41t-155.5 105.5t-85 143.5t-25.5 152zM360 422q0 -104 56.5 -168t154.5 -64q55 0 95.5 21.5t65 55.5t35.5 75t11 78q0 39 -11 79t-35.5 72.5t-65.5 54t-101 21.5q-39 0 -75.5 -13t-65.5 -41t-46.5 -70t-17.5 -101zM385 1044 q0 -33 12.5 -64.5t35 -57t57 -42t81.5 -16.5q86 0 132.5 51.5t46.5 128.5q0 84 -49.5 132.5t-118.5 48.5q-98 0 -147.5 -50.5t-49.5 -130.5z" />
<glyph unicode="9" horiz-adv-x="1159" d="M61 932q0 133 38 231.5t103.5 163t157 96t197.5 31.5q127 0 213 -41t143.5 -107.5t89 -148.5t46 -165t17.5 -158.5t3 -126.5q0 -211 -46 -354.5t-120 -230.5t-169 -124t-193 -37q-92 0 -171 25.5t-138.5 75t-96.5 119t-45 155.5h285v-2q12 -76 57 -110t111 -34 q45 0 87 20.5t75.5 68t55 125t21.5 192.5l-4 4q-49 -74 -126 -98.5t-150 -24.5q-104 0 -186.5 37t-138.5 99.5t-86 144.5t-30 174zM348 973q0 -82 18.5 -134.5t48 -81t68.5 -39.5t80 -11q37 0 75 14t68.5 43t49 75t18.5 111q0 125 -54 197t-165 72q-29 0 -63.5 -9.5 t-67.5 -36t-54.5 -74.5t-21.5 -126z" />
<glyph unicode="A" horiz-adv-x="1652" d="M2 0l664 1460h323l653 -1460h-301l-153 324h-739l-154 -324h-293zM586 621h485l-237 565h-3z" />
<glyph unicode="B" horiz-adv-x="1441" d="M141 0v1462h688q104 0 190.5 -18.5t148 -60.5t95 -111.5t33.5 -171.5q0 -109 -51 -183.5t-147 -121.5q135 -39 201.5 -136.5t66.5 -234.5q0 -111 -43 -191.5t-115.5 -132t-166 -76t-191.5 -24.5h-709zM463 250h344q47 0 90 9t76 30.5t52 58.5t19 94q0 113 -63 161 t-168 48h-350v-401zM463 870h325q86 0 141.5 41t55.5 133q0 51 -18.5 84t-49 51.5t-70.5 25.5t-83 7h-301v-342z" />
<glyph unicode="C" d="M63 737q0 152 58.5 287t159 236.5t235.5 160t289 58.5q104 0 200.5 -28t179.5 -78t149.5 -119.5t113.5 -153.5q-47 -25 -76 -40.5t-55.5 -28.5t-59 -29.5t-83.5 -40.5q-53 94 -151.5 152t-217.5 58q-90 0 -169 -34.5t-138.5 -93t-93 -138.5t-33.5 -168q0 -90 33.5 -169 t93 -138t138.5 -93t169 -34q123 0 224 62.5t157 164.5q51 -27 82.5 -43t58.5 -30.5t55.5 -28.5t77.5 -37q-47 -88 -114.5 -160.5t-151.5 -125t-183.5 -81t-205.5 -28.5q-154 0 -289 58.5t-235.5 158.5t-159 235.5t-58.5 288.5z" />
<glyph unicode="D" d="M141 0v1462h631q141 0 263 -45t211 -135t139.5 -225t50.5 -318q0 -160 -41 -295t-124 -233t-207 -154.5t-292 -56.5h-631zM463 270h287q70 0 135 22.5t116.5 75t82 136.5t30.5 205q0 111 -21.5 199.5t-70.5 152t-130 97.5t-200 34h-229v-922z" />
<glyph unicode="E" horiz-adv-x="1327" d="M104 2v1466h1067v-270h-755v-330h667v-284h-667v-312h825v-270h-1137z" />
<glyph unicode="F" horiz-adv-x="1214" d="M104 2v1466h1067v-270h-755v-330h667v-284h-667v-312v-272z" />
<glyph unicode="G" horiz-adv-x="1554" d="M23 733q0 156 59 293t162.5 240.5t241 163t292.5 59.5q106 0 204.5 -28.5t183.5 -79t155 -121t119 -156.5q-49 -25 -79 -41t-57.5 -29.5t-60.5 -30t-86 -42.5q-57 96 -157.5 155.5t-221.5 59.5q-92 0 -173 -35t-140 -94.5t-94 -140.5t-35 -173t35 -173t94 -141.5t140 -94 t173 -33.5q123 0 225.5 61.5t161.5 159.5l-29 1q-14 1 -32 1t-39 -1q-43 -1 -93 -1t-93 -1t-72 -1t-29 2v221h169h188.5t197 -1t193.5 -1q0 -20 -6.5 -68.5t-16.5 -103.5t-25.5 -108.5t-35.5 -81.5q-47 -88 -117 -161t-156 -124t-185 -80t-206 -29q-156 0 -293 59.5 t-240.5 163t-162.5 240.5t-59 295z" />
<glyph unicode="H" d="M113 4v1466h313v-530h678v526h315v-1462h-315v623h-678v-623h-313z" />
<glyph unicode="I" horiz-adv-x="604" d="M141 0v1462h322v-1462h-322z" />
<glyph unicode="J" horiz-adv-x="1138" d="M29 418v45h297v-45q0 -37 5 -68t21 -53q18 -29 54 -45t100 -16q63 0 98 22.5t50.5 58t18.5 77.5t3 81v987h321v-1001q0 -47 -6 -102.5t-23.5 -110.5t-50 -105.5t-87 -90.5t-133.5 -63.5t-187 -23.5q-121 0 -232.5 46t-177.5 147q-35 51 -53 115.5t-18 144.5z" />
<glyph unicode="K" horiz-adv-x="1478" d="M88 0v1464h328v-538l571 538h399l-768 -716l812 -748h-443l-571 539v-539h-328z" />
<glyph unicode="L" horiz-adv-x="1214" d="M111 10v1458h315v-1187h750v-271h-1065z" />
<glyph unicode="M" horiz-adv-x="1857" d="M176 0v1462h418l334 -1013l336 1013h424v-1462h-273v1036h-4l-358 -1036h-248l-359 1026h-4v-1026h-266z" />
<glyph unicode="N" d="M113 -2v1468h254h114l654 -913v913h272v-1468h-272l-768 1071v-1071h-254z" />
<glyph unicode="O" horiz-adv-x="1593" d="M37 737q0 158 59.5 296t161.5 240.5t239.5 162t295.5 59.5q156 0 294 -59.5t240.5 -162t162.5 -240.5t60 -296t-60 -295t-162.5 -239.5t-241 -161.5t-293.5 -59q-158 0 -295.5 59t-239.5 161.5t-161.5 240t-59.5 294.5zM346 737q0 -92 36 -173t96.5 -141.5t141 -96 t173.5 -35.5q92 0 171.5 35.5t140 96t95.5 141.5t35 173t-35 173t-95.5 142.5t-140 97.5t-171.5 36t-173 -36t-141.5 -97.5t-96.5 -142.5t-36 -173z" />
<glyph unicode="P" horiz-adv-x="1366" d="M141 0v1462h660q137 0 233 -40t156.5 -105.5t88.5 -150.5t28 -173q0 -90 -28 -174t-88.5 -149.5t-156.5 -105.5t-233 -40h-338v-524h-322zM463 774h250q55 0 106 8.5t90 32t62.5 66.5t23.5 112q0 70 -23.5 113t-62.5 66.5t-90 31.5t-106 8h-250v-438z" />
<glyph unicode="Q" horiz-adv-x="1593" d="M43 743q0 156 58.5 292t159.5 237.5t236.5 160t288.5 58.5q156 0 292 -58.5t237.5 -160t160 -237.5t58.5 -292q0 -135 -46 -254.5t-126 -218.5h172v-239h-541q-98 -31 -207 -31q-154 0 -289 58.5t-236 159.5t-159.5 236.5t-58.5 288.5zM348 743q0 -90 35 -168.5 t94.5 -137t139 -92.5t169.5 -34q92 0 171 34t138.5 92.5t93.5 137t34 168.5q0 92 -34 171t-93.5 138.5t-138.5 93.5t-171 34q-90 0 -169.5 -34t-139 -93.5t-94.5 -138t-35 -171.5z" />
<glyph unicode="R" horiz-adv-x="1478" d="M141 -2v1464h660q137 0 234.5 -40t158.5 -105.5t89 -150.5t28 -173q0 -74 -20.5 -146.5t-62.5 -134t-107.5 -106.5t-157.5 -65h12l379 -543h-363l-368 526h-158v-526h-324zM465 772h250q57 0 108 8t89 33t60.5 68t22.5 112q0 72 -22.5 115t-60.5 66.5t-89 30.5t-108 7 h-250v-440z" />
<glyph unicode="S" horiz-adv-x="1329" d="M49 485h311q0 -74 27 -125t71 -82.5t102 -47t124 -15.5q43 0 92 7t92 27.5t72 56.5t29 91q0 59 -38 96t-99.5 63t-139.5 43t-157 40q-82 20 -160 50t-139.5 77t-99.5 116.5t-38 172.5q0 113 48.5 195.5t126 138t176 82t196.5 26.5q115 0 220.5 -25.5t187.5 -83 t130 -146.5t48 -216h-311q-4 66 -28 109t-62.5 67.5t-90 34.5t-108.5 10q-39 0 -78 -8t-70.5 -28.5t-52 -52.5t-20.5 -77q0 -43 16 -69.5t64.5 -48t133.5 -45t222 -58.5q27 -6 69.5 -17.5t91 -30.5t96.5 -50t88 -76t64.5 -107.5t24.5 -144.5q0 -100 -39 -186t-115.5 -148.5 t-190.5 -98.5t-263 -36q-121 0 -234.5 31t-199.5 94.5t-138 161.5q-51 94 -51 223v10z" />
<glyph unicode="T" horiz-adv-x="1337" d="M47 1190v270h1247v-270l-460 2v-1192h-322v1192z" />
<glyph unicode="U" d="M135 553v909h322v-909q0 -59 10 -116.5t43 -102.5t91 -71.5t157 -26.5q172 0 237.5 76.5t65.5 240.5v909h321v-909q0 -297 -165.5 -442.5t-458.5 -145.5q-297 0 -460 144.5t-163 443.5z" />
<glyph unicode="V" horiz-adv-x="1290" d="M-16 1462h331l326 -1028h4l330 1028h332l-486 -1462h-362z" />
<glyph unicode="W" horiz-adv-x="1933" d="M6 1462h322l207 -999l28 4l254 995h301l250 -1007l29 -2l215 1009h315l-393 -1462h-320l-247 995h-4l-244 -995h-326z" />
<glyph unicode="X" horiz-adv-x="1366" d="M-12 0l512 766l-471 696h372l287 -467l297 467h352l-469 -698l510 -764h-383l-307 502l-338 -502h-362z" />
<glyph unicode="Y" horiz-adv-x="1366" d="M-18 1462h362l342 -577l340 577h358l-542 -901v-561h-322v569z" />
<glyph unicode="Z" horiz-adv-x="1327" d="M47 0v254l784 938h-722v270h1151v-254l-785 -938h805v-270h-1233z" />
<glyph unicode="a" horiz-adv-x="1652" d="M2 0l664 1460h323l653 -1460h-301l-153 324h-739l-154 -324h-293zM586 621h485l-237 565h-3z" />
<glyph unicode="b" horiz-adv-x="1423" d="M109 0v1462h688q104 0 190 -18.5t147.5 -60.5t95.5 -111.5t34 -171.5q0 -109 -51.5 -183.5t-147.5 -121.5q135 -39 201.5 -136.5t66.5 -234.5q0 -111 -43 -191.5t-115.5 -132t-166 -76t-191.5 -24.5h-708zM430 250h344q47 0 90 9t76 30.5t52.5 58.5t19.5 94 q0 113 -63.5 161t-168.5 48h-350v-401zM430 870h326q86 0 141 41t55 133q0 51 -18.5 84t-49 51.5t-70.5 25.5t-83 7h-301v-342z" />
<glyph unicode="c" d="M63 737q0 152 58.5 287t159 236.5t235.5 160t289 58.5q104 0 200.5 -28t179.5 -78t149.5 -119.5t113.5 -153.5q-47 -25 -76 -40.5t-55.5 -28.5t-59 -29.5t-83.5 -40.5q-53 94 -151.5 152t-217.5 58q-90 0 -169 -34.5t-138.5 -93t-93 -138.5t-33.5 -168q0 -90 33.5 -169 t93 -138t138.5 -93t169 -34q123 0 224 62.5t157 164.5q51 -27 82.5 -43t58.5 -30.5t55.5 -28.5t77.5 -37q-47 -88 -114.5 -160.5t-151.5 -125t-183.5 -81t-205.5 -28.5q-154 0 -289 58.5t-235.5 158.5t-159 235.5t-58.5 288.5z" />
<glyph unicode="d" horiz-adv-x="1529" d="M141 0v1462h631q141 0 263 -45t211 -135t139.5 -225t50.5 -318q0 -160 -41 -295t-124 -233t-207 -154.5t-292 -56.5h-631zM463 270h287q70 0 135 22.5t116.5 75t82 136.5t30.5 205q0 111 -21.5 199.5t-70.5 152t-130 97.5t-200 34h-229v-922z" />
<glyph unicode="e" horiz-adv-x="1331" d="M104 2v1466h1067v-270h-755v-330h667v-284h-667v-312h825v-270h-1137z" />
<glyph unicode="f" horiz-adv-x="1255" d="M104 2v1466h1067v-270h-755v-330h667v-284h-667v-312v-272z" />
<glyph unicode="g" horiz-adv-x="1595" d="M23 733q0 156 59 293t162.5 240.5t241 163t292.5 59.5q106 0 204.5 -28.5t183.5 -79t155 -121t119 -156.5q-49 -25 -79 -41t-57.5 -29.5t-60.5 -30t-86 -42.5q-57 96 -157.5 155.5t-221.5 59.5q-92 0 -173 -35t-140 -94.5t-94 -140.5t-35 -173t35 -173t94 -141.5t140 -94 t173 -33.5q123 0 225.5 61.5t161.5 159.5l-29 1q-14 1 -32 1t-39 -1q-43 -1 -93 -1t-93 -1t-72 -1t-29 2v221h169h188.5t197 -1t193.5 -1q0 -20 -6.5 -68.5t-16.5 -103.5t-25.5 -108.5t-35.5 -81.5q-47 -88 -117 -161t-156 -124t-185 -80t-206 -29q-156 0 -293 59.5 t-240.5 163t-162.5 240.5t-59 295z" />
<glyph unicode="h" horiz-adv-x="1533" d="M113 4v1466h313v-530h678v526h315v-1462h-315v623h-678v-623h-313z" />
<glyph unicode="i" horiz-adv-x="589" d="M141 0v1462h322v-1462h-322z" />
<glyph unicode="j" horiz-adv-x="1071" d="M29 418v45h297v-45q0 -37 5 -68t21 -53q18 -29 54 -45t100 -16q63 0 98 22.5t50.5 58t18.5 77.5t3 81v987h321v-1001q0 -47 -6 -102.5t-23.5 -110.5t-50 -105.5t-87 -90.5t-133.5 -63.5t-187 -23.5q-121 0 -232.5 46t-177.5 147q-35 51 -53 115.5t-18 144.5z" />
<glyph unicode="k" horiz-adv-x="1484" d="M88 0v1464h328v-538l571 538h399l-768 -716l812 -748h-443l-571 539v-539h-328z" />
<glyph unicode="l" horiz-adv-x="1267" d="M111 10v1458h315v-1187h750v-271h-1065z" />
<glyph unicode="m" horiz-adv-x="1835" d="M176 0v1462h418l334 -1013l336 1013h424v-1462h-273v1036h-4l-358 -1036h-248l-359 1026h-4v-1026h-266z" />
<glyph unicode="n" horiz-adv-x="1533" d="M113 -2v1468h254h114l654 -913v913h272v-1468h-272l-768 1071v-1071h-254z" />
<glyph unicode="o" horiz-adv-x="1595" d="M37 737q0 158 59.5 296t161.5 240.5t239.5 162t295.5 59.5q156 0 294 -59.5t240.5 -162t162.5 -240.5t60 -296t-60 -295t-162.5 -239.5t-241 -161.5t-293.5 -59q-158 0 -295.5 59t-239.5 161.5t-161.5 240t-59.5 294.5zM346 737q0 -92 36 -173t96.5 -141.5t141 -96 t173.5 -35.5q92 0 171.5 35.5t140 96t95.5 141.5t35 173t-35 173t-95.5 142.5t-140 97.5t-171.5 36t-173 -36t-141.5 -97.5t-96.5 -142.5t-36 -173z" />
<glyph unicode="p" horiz-adv-x="1366" d="M141 0v1462h660q137 0 233 -40t156.5 -105.5t88.5 -150.5t28 -173q0 -90 -28 -174t-88.5 -149.5t-156.5 -105.5t-233 -40h-338v-524h-322zM463 774h250q55 0 106 8.5t90 32t62.5 66.5t23.5 112q0 70 -23.5 113t-62.5 66.5t-90 31.5t-106 8h-250v-438z" />
<glyph unicode="q" horiz-adv-x="1599" d="M43 743q0 156 58.5 292t159.5 237.5t236.5 160t288.5 58.5q156 0 292 -58.5t237.5 -160t160 -237.5t58.5 -292q0 -135 -46 -254.5t-126 -218.5h172v-239h-541q-98 -31 -207 -31q-154 0 -289 58.5t-236 159.5t-159.5 236.5t-58.5 288.5zM348 743q0 -90 35 -168.5 t94.5 -137t139 -92.5t169.5 -34q92 0 171 34t138.5 92.5t93.5 137t34 168.5q0 92 -34 171t-93.5 138.5t-138.5 93.5t-171 34q-90 0 -169.5 -34t-139 -93.5t-94.5 -138t-35 -171.5z" />
<glyph unicode="r" horiz-adv-x="1447" d="M141 -2v1464h660q137 0 234.5 -40t158.5 -105.5t89 -150.5t28 -173q0 -74 -20.5 -146.5t-62.5 -134t-107.5 -106.5t-157.5 -65h12l379 -543h-363l-368 526h-158v-526h-324zM465 772h250q57 0 108 8t89 33t60.5 68t22.5 112q0 72 -22.5 115t-60.5 66.5t-89 30.5t-108 7 h-250v-440z" />
<glyph unicode="s" horiz-adv-x="1327" d="M49 485h311q0 -74 27 -125t71 -82.5t102 -47t124 -15.5q43 0 92 7t92 27.5t72 56.5t29 91q0 59 -38 96t-99.5 63t-139.5 43t-157 40q-82 20 -160 50t-139.5 77t-99.5 116.5t-38 172.5q0 113 48.5 195.5t126 138t176 82t196.5 26.5q115 0 220.5 -25.5t187.5 -83 t130 -146.5t48 -216h-311q-4 66 -28 109t-62.5 67.5t-90 34.5t-108.5 10q-39 0 -78 -8t-70.5 -28.5t-52 -52.5t-20.5 -77q0 -43 16 -69.5t64.5 -48t133.5 -45t222 -58.5q27 -6 69.5 -17.5t91 -30.5t96.5 -50t88 -76t64.5 -107.5t24.5 -144.5q0 -100 -39 -186t-115.5 -148.5 t-190.5 -98.5t-263 -36q-121 0 -234.5 31t-199.5 94.5t-138 161.5q-51 94 -51 223v10z" />
<glyph unicode="t" horiz-adv-x="1337" d="M47 1190v270h1247v-270l-460 2v-1192h-322v1192z" />
<glyph unicode="u" horiz-adv-x="1513" d="M135 553v909h322v-909q0 -59 10 -116.5t43 -102.5t91 -71.5t157 -26.5q172 0 237.5 76.5t65.5 240.5v909h321v-909q0 -297 -165.5 -442.5t-458.5 -145.5q-297 0 -460 144.5t-163 443.5z" />
<glyph unicode="v" horiz-adv-x="1288" d="M-16 1462h331l326 -1028h4l330 1028h332l-486 -1462h-362z" />
<glyph unicode="w" horiz-adv-x="1927" d="M6 1462h322l207 -999l28 4l254 995h301l250 -1007l29 -2l215 1009h315l-393 -1462h-320l-247 995h-4l-244 -995h-326z" />
<glyph unicode="x" horiz-adv-x="1370" d="M-12 0l512 766l-471 696h372l287 -467l297 467h352l-469 -698l510 -764h-383l-307 502l-338 -502h-362z" />
<glyph unicode="y" horiz-adv-x="1370" d="M-18 1462h362l342 -577l340 577h358l-542 -901v-561h-322v569z" />
<glyph unicode="z" horiz-adv-x="1327" d="M47 0v254l784 938h-722v270h1151v-254l-785 -938h805v-270h-1233z" />
<glyph unicode="&#xa9;" horiz-adv-x="1638" d="M2 815q0 168 64.5 316.5t175 259t259 175t316.5 64.5t316.5 -64.5t259 -175t175 -259t64.5 -316.5t-64.5 -316.5t-175 -259t-259 -175t-316.5 -64.5t-316.5 64.5t-259 175t-175 259t-64.5 316.5zM172 815q0 -135 50 -254t138.5 -208t205 -140t251.5 -51t254 51t208 140 t141.5 208t52.5 254t-52.5 252t-141.5 205t-208 138t-254 50t-251.5 -50t-205 -138t-138.5 -205t-50 -252zM334 815q0 106 41 201.5t110.5 166t161.5 111.5t197 41q150 0 270.5 -73.5t185.5 -194.5q-33 -16 -54 -26.5t-40.5 -19.5t-42 -20.5t-59.5 -31.5 q-41 66 -106.5 108.5t-153.5 42.5q-59 0 -113.5 -23.5t-94.5 -65.5t-63.5 -97t-23.5 -119q0 -63 23.5 -118.5t63.5 -97.5t94 -65.5t114 -23.5q88 0 158.5 44t111.5 118q37 -20 58.5 -31.5t39 -21t37 -19.5t51.5 -27q-59 -123 -180 -200.5t-276 -77.5q-104 0 -196.5 41 t-162 111.5t-110.5 165t-41 202.5z" />
<glyph unicode="&#xae;" horiz-adv-x="1638" d="M18 811q0 168 63.5 314.5t173.5 256t256 173t314 63.5q166 0 313.5 -63.5t256 -173t172 -256t63.5 -314.5q0 -166 -63.5 -313.5t-172 -256t-256 -172t-313.5 -63.5q-168 0 -314 63.5t-256 172t-173.5 256t-63.5 313.5zM180 811q0 -133 50.5 -250t138.5 -205t204.5 -138 t251.5 -50q133 0 251 50t205 138t137 205t50 250q0 135 -50 252t-137 205t-205 138t-251 50q-135 0 -251.5 -50t-204.5 -138t-138.5 -205t-50.5 -252zM438 346v932h422q86 0 147.5 -25.5t99.5 -66.5t56.5 -95.5t18.5 -109.5q0 -96 -52.5 -178t-168.5 -111h8l241 -346h-231 l-234 334h-102v-334h-205zM643 838h160q37 0 69.5 5t57 20.5t39 44t14.5 73.5t-14.5 71.5t-39 41t-57 19.5t-69.5 5h-160v-280z" />
<glyph unicode="&#x2000;" horiz-adv-x="835" />
<glyph unicode="&#x2001;" horiz-adv-x="1671" />
<glyph unicode="&#x2002;" horiz-adv-x="835" />
<glyph unicode="&#x2003;" horiz-adv-x="1671" />
<glyph unicode="&#x2004;" horiz-adv-x="557" />
<glyph unicode="&#x2005;" horiz-adv-x="417" />
<glyph unicode="&#x2006;" horiz-adv-x="278" />
<glyph unicode="&#x2007;" horiz-adv-x="278" />
<glyph unicode="&#x2008;" horiz-adv-x="208" />
<glyph unicode="&#x2009;" horiz-adv-x="334" />
<glyph unicode="&#x200a;" horiz-adv-x="92" />
<glyph unicode="&#x202f;" horiz-adv-x="334" />
<glyph unicode="&#x205f;" horiz-adv-x="417" />
<glyph unicode="&#x2122;" horiz-adv-x="2048" d="M127 1298v164h688v-164h-240v-680h-208v680h-240zM924 616v846h241l193 -585l194 585h246v-846h-160v601h-2l-206 -601h-144l-207 592h-2v-592h-153z" />
<glyph unicode="&#x25fc;" horiz-adv-x="1464" d="M0 0v1464h1464v-1464h-1464z" />
</font>
</defs>
</svg>
